<svg width="574" height="598" viewBox="0 0 574 598" fill="none" xmlns="http://www.w3.org/2000/svg" xmlns:xlink="http://www.w3.org/1999/xlink">
<path d="M2.6,282.431L-0.95,282.431L-0.95,289.531L2.6,289.531L2.6,282.431ZM569.675,289.531L573.225,289.531L573.225,282.431L569.675,282.431L569.675,289.531ZM2.6,289.531L569.675,289.531L569.675,282.431L2.6,282.431L2.6,289.531Z" transform="rotate(179.62 286.097 285.981)" fill="#1477F8"/>
<path d="M285.233,49.782C298.957,49.782 310.083,38.656 310.083,24.932C310.083,11.208 298.957,0.082 285.233,0.082C271.509,0.082 260.383,11.208 260.383,24.932C260.383,38.656 271.509,49.782 285.233,49.782Z" clip-rule="evenodd" fill-rule="evenodd" transform="rotate(179.62 285.233 24.932)" fill="#FFFFFF" stroke="#1477F8" stroke-width="3.55" stroke-miterlimit="3.999327"/>
<path d="M301.243,571.881L272.843,596.731L272.843,547.031L301.243,571.881Z" clip-rule="evenodd" fill-rule="evenodd" transform="rotate(179.62 287.043 571.881)" fill="#1477F8"/>
</svg>
