<svg width="306" height="50" viewBox="0 0 306 50" fill="none" xmlns="http://www.w3.org/2000/svg" xmlns:xlink="http://www.w3.org/1999/xlink">
<path d="M3.246,21.3L-0.304,21.3L-0.304,28.4L3.246,28.4L3.246,21.3ZM297.43,28.4L300.98,28.4L300.98,21.3L297.43,21.3L297.43,28.4ZM3.246,28.4L297.43,28.4L297.43,21.3L3.246,21.3L3.246,28.4Z" transform="rotate(0 150.317 24.85)" fill="#1477F8"/>
<path d="M14.891,49.699C22.011,49.699 27.783,38.574 27.783,24.849C27.783,11.125 22.011,-0.001 14.891,-0.001C7.772,-0.001 2,11.125 2,24.849C2,38.574 7.772,49.699 14.891,49.699Z" clip-rule="evenodd" fill-rule="evenodd" transform="rotate(0 14.891 24.849)" fill="#FFFFFF" stroke="#1477F8" stroke-width="3.55" stroke-miterlimit="3.999327"/>
<path d="M306.001,24.851L291.268,49.701L291.268,0.001L306.001,24.851Z" clip-rule="evenodd" fill-rule="evenodd" transform="rotate(0 298.634 24.851)" fill="#1477F8"/>
</svg>
