<svg width="576" height="598" viewBox="0 0 576 598" fill="none" xmlns="http://www.w3.org/2000/svg" xmlns:xlink="http://www.w3.org/1999/xlink">
<path d="M4.376,306.634L0.826,306.634L0.826,313.734L4.376,313.734L4.376,306.634ZM571.451,313.734L575.001,313.734L575.001,306.634L571.451,306.634L571.451,313.734ZM4.376,313.734L571.451,313.734L571.451,306.634L4.376,306.634L4.376,313.734Z" transform="rotate(-180.391 287.873 310.184)" fill="#1477F8"/>
<path d="M288.763,596.082C302.487,596.082 313.613,584.957 313.613,571.232C313.613,557.508 302.487,546.382 288.763,546.382C275.039,546.382 263.913,557.508 263.913,571.232C263.913,584.957 275.039,596.082 288.763,596.082Z" clip-rule="evenodd" fill-rule="evenodd" transform="rotate(-180.391 288.763 571.232)" fill="#FFFFFF" stroke="#1477F8" stroke-width="3.55" stroke-miterlimit="3.999327"/>
<path d="M301.1,24.284L272.7,49.134L272.7,-0.566L301.1,24.284Z" clip-rule="evenodd" fill-rule="evenodd" transform="rotate(-180.391 286.9 24.284)" fill="#1477F8"/>
</svg>
