<svg width="34" height="22" viewBox="0 0 34 22" fill="none" xmlns="http://www.w3.org/2000/svg" xmlns:xlink="http://www.w3.org/1999/xlink">
<path d="M32,-0.667L30,-0.667C28.895,-0.667 28,0.229 28,1.333L28,18.667C28,19.771 28.895,20.667 30,20.667L32,20.667C33.105,20.667 34,19.771 34,18.667L34,1.333C34,0.229 33.105,-0.667 32,-0.667ZM20.666,4L22.666,4C23.771,4 24.666,4.895 24.666,6L24.666,18.667C24.666,19.771 23.771,20.667 22.666,20.667L20.666,20.667C19.561,20.667 18.666,19.771 18.666,18.667L18.666,6C18.666,4.895 19.561,4 20.666,4ZM13.334,8.667L11.334,8.667C10.229,8.667 9.334,9.562 9.334,10.667L9.334,18.667C9.334,19.771 10.229,20.667 11.334,20.667L13.334,20.667C14.439,20.667 15.334,19.771 15.334,18.667L15.334,10.667C15.334,9.562 14.439,8.667 13.334,8.667ZM4,12.667L2,12.667C0.895,12.667 0,13.562 0,14.667L0,18.667C0,19.771 0.895,20.667 2,20.667L4,20.667C5.105,20.667 6,19.771 6,18.667L6,14.667C6,13.562 5.105,12.667 4,12.667Z" clip-rule="evenodd" fill-rule="evenodd" fill="#FFFFFF"/>
</svg>
