<svg width="96" height="96" viewBox="0 0 96 96" fill="none" xmlns="http://www.w3.org/2000/svg" xmlns:xlink="http://www.w3.org/1999/xlink">
<path d="M48,0C84.588,0 96,13.163 96,48C96,82.837 84.588,96 48,96C11.412,96 0,82.837 0,48C0,13.163 11.412,0 48,0Z" clip-rule="evenodd" fill-rule="evenodd" fill="#383838"/>
<path d="M47,56C46.204,56 45.441,56.316 44.879,56.879C44.316,57.441 44,58.204 44,59L44,60.6C44,62.032 43.431,63.406 42.418,64.418C41.406,65.431 40.032,66 38.6,66L35.4,66C33.968,66 32.594,65.431 31.582,64.418C30.569,63.406 30,62.032 30,60.6L30,35.4C30,33.968 30.569,32.594 31.582,31.582C32.594,30.569 33.968,30 35.4,30L38.6,30C40.032,30 41.406,30.569 42.418,31.582C43.431,32.594 44,33.968 44,35.4L44,37C44,37.796 44.316,38.559 44.879,39.121C45.441,39.684 46.204,40 47,40C47.796,40 48.559,39.684 49.121,39.121C49.684,38.559 50,37.796 50,37L50,35.4C49.997,32.378 48.795,29.48 46.658,27.343C44.52,25.205 41.622,24.003 38.6,24L35.4,24C32.378,24.003 29.48,25.205 27.342,27.343C25.205,29.48 24.003,32.378 24,35.4L24,60.6C24.003,63.622 25.205,66.52 27.342,68.658C29.48,70.795 32.378,71.997 35.4,72L38.6,72C41.622,71.997 44.52,70.795 46.658,68.658C48.795,66.52 49.997,63.622 50,60.6L50,59C50,58.204 49.684,57.441 49.121,56.879C48.559,56.316 47.796,56 47,56Z" fill="url(#pf_0_i_7_538;3014_7063)"/>
<path d="M69.122,43.05L59.95,33.878C59.671,33.599 59.341,33.379 58.976,33.228C58.612,33.077 58.222,33 57.828,33C57.434,33 57.044,33.078 56.68,33.228C56.316,33.379 55.986,33.6 55.707,33.879C55.144,34.442 54.829,35.205 54.829,36.001C54.829,36.395 54.907,36.785 55.057,37.149C55.208,37.513 55.429,37.843 55.708,38.122L62.53,44.944L38,45C37.204,45 36.441,45.316 35.879,45.879C35.316,46.441 35,47.204 35,48C35,48.796 35.316,49.559 35.879,50.121C36.441,50.684 37.204,51 38,51L62.636,50.944L55.702,57.878C55.139,58.441 54.823,59.204 54.823,59.999C54.823,60.795 55.138,61.558 55.701,62.121C56.264,62.684 57.027,63 57.822,63C58.618,63 59.381,62.685 59.944,62.122L69.116,52.95C70.427,51.637 71.164,49.857 71.165,48.001C71.167,46.145 70.432,44.365 69.122,43.05Z" fill="url(#pf_0_i_7_538;3014_7064)"/>
<defs>
<linearGradient id="pf_0_i_7_538;3014_7063" x1="24" y1="48" x2="50" y2="48" gradientUnits="userSpaceOnUse">
<stop stop-color="#73CBE6"/>
<stop offset="1" stop-color="#52C3E6"/>
</linearGradient>
<linearGradient id="pf_0_i_7_538;3014_7064" x1="35" y1="48" x2="71.165" y2="48" gradientUnits="userSpaceOnUse">
<stop stop-color="#73CBE6"/>
<stop offset="1" stop-color="#52C3E6"/>
</linearGradient>
</defs>
</svg>
