<svg width="96" height="96" viewBox="0 0 96 96" fill="none" xmlns="http://www.w3.org/2000/svg" xmlns:xlink="http://www.w3.org/1999/xlink">
<path d="M64,46L64,44L64,46ZM53.333,56.4L51.333,56.4L53.333,56.4ZM48,72L46.91,70.323C46.167,70.806 45.831,71.719 46.082,72.568C46.334,73.418 47.114,74 48,74L48,72ZM80,72L80,74C80.886,74 81.666,73.418 81.918,72.568C82.169,71.719 81.833,70.806 81.09,70.323L80,72ZM76.667,56.4C76.667,53.095 75.32,49.935 72.939,47.614L70.146,50.478C71.766,52.058 72.667,54.189 72.667,56.4L76.667,56.4ZM72.939,47.614C70.56,45.294 67.343,44 64,44L64,48C66.315,48 68.525,48.897 70.146,50.478L72.939,47.614ZM64,44C60.657,44 57.44,45.294 55.061,47.614L57.854,50.478C59.475,48.897 61.685,48 64,48L64,44ZM55.061,47.614C52.68,49.935 51.333,53.095 51.333,56.4L55.333,56.4C55.333,54.189 56.234,52.058 57.854,50.478L55.061,47.614ZM51.333,56.4C51.333,62.163 50.07,65.721 48.921,67.774C48.344,68.806 47.784,69.479 47.399,69.875C47.206,70.074 47.056,70.204 46.968,70.275C46.924,70.311 46.896,70.332 46.885,70.34C46.88,70.343 46.879,70.344 46.883,70.341C46.885,70.34 46.888,70.337 46.893,70.334C46.895,70.333 46.898,70.331 46.901,70.329C46.902,70.328 46.903,70.327 46.905,70.326C46.906,70.326 46.907,70.325 46.907,70.325C46.909,70.324 46.91,70.323 48,72C49.09,73.677 49.091,73.676 49.093,73.675C49.093,73.675 49.095,73.674 49.095,73.673C49.097,73.672 49.099,73.671 49.101,73.669C49.106,73.667 49.11,73.664 49.115,73.66C49.124,73.654 49.135,73.647 49.147,73.638C49.172,73.622 49.201,73.601 49.235,73.577C49.302,73.528 49.388,73.462 49.49,73.38C49.694,73.214 49.961,72.979 50.268,72.662C50.883,72.029 51.656,71.078 52.412,69.726C53.93,67.013 55.333,62.77 55.333,56.4L51.333,56.4ZM48,74L80,74L80,70L48,70L48,74ZM80,72C81.09,70.323 81.091,70.324 81.093,70.325C81.093,70.325 81.094,70.326 81.095,70.326C81.097,70.327 81.098,70.328 81.099,70.329C81.102,70.331 81.105,70.333 81.107,70.334C81.112,70.337 81.115,70.34 81.117,70.341C81.121,70.344 81.12,70.343 81.115,70.34C81.104,70.332 81.076,70.311 81.032,70.275C80.944,70.204 80.794,70.074 80.601,69.875C80.216,69.479 79.656,68.806 79.079,67.774C77.93,65.721 76.667,62.163 76.667,56.4L72.667,56.4C72.667,62.77 74.07,67.013 75.588,69.726C76.344,71.078 77.117,72.029 77.732,72.662C78.039,72.979 78.306,73.214 78.51,73.38C78.612,73.462 78.698,73.528 78.765,73.577C78.799,73.601 78.828,73.622 78.853,73.638C78.865,73.647 78.876,73.654 78.885,73.66C78.89,73.664 78.894,73.667 78.899,73.669C78.901,73.671 78.903,73.672 78.905,73.673C78.905,73.674 78.907,73.675 78.907,73.675C78.909,73.676 78.91,73.677 80,72Z" fill="#000000"/>
<path d="M69.663,81.111C70.277,80.193 70.03,78.951 69.111,78.337C68.193,77.723 66.951,77.97 66.337,78.889L69.663,81.111ZM61.663,78.889C61.049,77.97 59.807,77.723 58.889,78.337C57.97,78.951 57.723,80.193 58.337,81.111L61.663,78.889ZM66.337,78.889C66.138,79.187 65.828,79.468 65.414,79.675L67.202,83.253C68.192,82.758 69.049,82.029 69.663,81.111L66.337,78.889ZM65.414,79.675C64.998,79.883 64.51,80 64,80L64,84C65.11,84 66.214,83.747 67.202,83.253L65.414,79.675ZM64,80C63.49,80 63.002,79.883 62.586,79.675L60.798,83.253C61.786,83.747 62.89,84 64,84L64,80ZM62.586,79.675C62.172,79.468 61.862,79.187 61.663,78.889L58.337,81.111C58.951,82.029 59.808,82.758 60.798,83.253L62.586,79.675Z" fill="#000000"/>
<path d="M48,0C84.588,0 96,13.163 96,48C96,82.837 84.588,96 48,96C11.412,96 0,82.837 0,48C0,13.163 11.412,0 48,0Z" clip-rule="evenodd" fill-rule="evenodd" fill="url(#pattern_0_5_393)" stroke="url(#ps_0_5_393)" stroke-width="2" stroke-miterlimit="3.999327"/>
</svg>
