<svg width="686" height="278" viewBox="0 0 686 278" fill="none" xmlns="http://www.w3.org/2000/svg" xmlns:xlink="http://www.w3.org/1999/xlink">
<rect  x="0" y="134" width="686" height="4" fill="#FFFFFF"/>
<rect  x="9.803" y="110.759" width="2.185" height="50.437" fill="#FFFFFF"/>
<rect  x="12.78" y="72.228" width="2.185" height="183.996" fill="#FFFFFF"/>
<rect  x="15.757" y="52.531" width="2.185" height="205.211" fill="#FFFFFF"/>
<rect  x="18.733" y="85.434" width="2.185" height="98.924" fill="#FFFFFF"/>
<rect  x="21.71" y="83.919" width="2.185" height="90.916" fill="#FFFFFF"/>
<rect  x="24.687" y="63.353" width="2.185" height="205.211" fill="#FFFFFF"/>
<rect  x="27.664" y="96.256" width="2.185" height="98.924" fill="#FFFFFF"/>
<rect  x="30.643" y="70.064" width="2.185" height="130.963" fill="#FFFFFF"/>
<rect  x="33.617" y="70.281" width="2.185" height="130.963" fill="#FFFFFF"/>
<rect  x="36.596" y="90.412" width="2.185" height="110.83" fill="#FFFFFF"/>
<rect  x="39.573" y="106.215" width="2.185" height="77.495" fill="#FFFFFF"/>
<rect  x="42.55" y="117.037" width="2.185" height="39.181" fill="#FFFFFF"/>
<rect  x="45.527" y="119.851" width="2.185" height="36.365" fill="#FFFFFF"/>
<rect  x="48.503" y="129.376" width="2.185" height="15.585" fill="#FFFFFF"/>
<rect  x="51.48" y="123.532" width="2.185" height="24.893" fill="#FFFFFF"/>
<rect  x="54.457" y="120.718" width="2.185" height="28.141" fill="#FFFFFF"/>
<rect  x="57.434" y="127.644" width="2.185" height="15.587" fill="#FFFFFF"/>
<rect  x="71.148" y="89.33" width="2.185" height="93.08" fill="#FFFFFF"/>
<rect  x="73.725" y="104.914" width="2.185" height="60.177" fill="#FFFFFF"/>
<rect  x="76.303" y="70.281" width="2.185" height="183.996" fill="#FFFFFF"/>
<rect  x="78.881" y="50.582" width="2.185" height="205.211" fill="#FFFFFF"/>
<rect  x="81.459" y="83.485" width="2.185" height="98.924" fill="#FFFFFF"/>
<rect  x="84.037" y="81.97" width="2.185" height="90.916" fill="#FFFFFF"/>
<rect  x="86.615" y="109.894" width="2.185" height="53.034" fill="#FFFFFF"/>
<rect  x="68.57" y="128.726" width="2.185" height="15.585" fill="#FFFFFF"/>
<rect  x="89.192" y="113.789" width="2.185" height="44.592" fill="#FFFFFF"/>
<rect  x="91.768" y="110.327" width="2.185" height="40.48" fill="#FFFFFF"/>
<rect  x="94.346" y="90.628" width="2.185" height="108.233" fill="#FFFFFF"/>
<rect  x="96.924" y="57.942" width="2.185" height="152.825" fill="#FFFFFF"/>
<rect  x="99.502" y="94.958" width="2.185" height="115.81" fill="#FFFFFF"/>
<rect  x="102.08" y="92.577" width="2.185" height="99.141" fill="#FFFFFF"/>
<rect  x="104.658" y="104.483" width="2.185" height="71.651" fill="#FFFFFF"/>
<rect  x="107.235" y="117.47" width="2.185" height="35.717" fill="#FFFFFF"/>
<rect  x="109.813" y="110.327" width="2.185" height="50.003" fill="#FFFFFF"/>
<rect  x="112.391" y="108.162" width="2.185" height="57.796" fill="#FFFFFF"/>
<rect  x="114.969" y="96.473" width="2.185" height="83.123" fill="#FFFFFF"/>
<rect  x="117.547" y="73.528" width="2.185" height="129.23" fill="#FFFFFF"/>
<rect  x="120.125" y="109.894" width="2.185" height="56.498" fill="#FFFFFF"/>
<rect  x="122.703" y="119.634" width="2.185" height="31.605" fill="#FFFFFF"/>
<rect  x="125.278" y="122.881" width="2.185" height="24.028" fill="#FFFFFF"/>
<rect  x="127.856" y="126.129" width="2.185" height="16.452" fill="#FFFFFF"/>
<rect  x="130.434" y="98.638" width="2.185" height="76.845" fill="#FFFFFF"/>
<rect  x="133.012" y="115.738" width="2.185" height="48.921" fill="#FFFFFF"/>
<rect  x="135.59" y="115.738" width="2.185" height="51.952" fill="#FFFFFF"/>
<rect  x="138.168" y="117.687" width="2.185" height="39.396" fill="#FFFFFF"/>
<rect  x="140.745" y="85.217" width="2.185" height="121.437" fill="#FFFFFF"/>
<rect  x="143.323" y="123.748" width="2.185" height="42.86" fill="#FFFFFF"/>
<rect  x="145.901" y="126.996" width="2.185" height="19.049" fill="#FFFFFF"/>
<rect  x="148.479" y="75.259" width="2.185" height="125.55" fill="#FFFFFF"/>
<rect  x="151.057" y="123.748" width="2.185" height="28.357" fill="#FFFFFF"/>
<rect  x="153.635" y="123.748" width="2.185" height="32.253" fill="#FFFFFF"/>
<rect  x="156.213" y="68.983" width="2.185" height="149.578" fill="#FFFFFF"/>
<rect  x="158.79" y="63.57" width="2.183" height="141.353" fill="#FFFFFF"/>
<rect  x="161.366" y="125.264" width="2.183" height="29.873" fill="#FFFFFF"/>
<rect  x="163.944" y="105.998" width="2.183" height="61.692" fill="#FFFFFF"/>
<rect  x="166.522" y="105.998" width="2.185" height="63.207" fill="#FFFFFF"/>
<rect  x="169.1" y="115.522" width="2.185" height="41.345" fill="#FFFFFF"/>
<rect  x="171.678" y="117.47" width="2.185" height="37.232" fill="#FFFFFF"/>
<rect  x="174.255" y="107.945" width="2.185" height="65.806" fill="#FFFFFF"/>
<rect  x="176.833" y="109.894" width="2.185" height="50.653" fill="#FFFFFF"/>
<rect  x="179.411" y="109.677" width="2.183" height="50.653" fill="#FFFFFF"/>
<rect  x="181.989" y="128.726" width="2.183" height="14.72" fill="#FFFFFF"/>
<rect  x="184.567" y="109.894" width="2.183" height="50.653" fill="#FFFFFF"/>
<rect  x="187.145" y="123.532" width="2.183" height="34.635" fill="#FFFFFF"/>
<rect  x="189.723" y="128.509" width="2.185" height="14.72" fill="#FFFFFF"/>
<rect  x="192.3" y="102.317" width="2.185" height="73.814" fill="#FFFFFF"/>
<rect  x="194.876" y="78.939" width="2.185" height="121.871" fill="#FFFFFF"/>
<rect  x="197.454" y="94.524" width="2.185" height="58.447" fill="#FFFFFF"/>
<rect  x="200.032" y="131.108" width="2.185" height="14.72" fill="#FFFFFF"/>
<rect  x="219.905" y="88.465" width="2.185" height="93.08" fill="#FFFFFF"/>
<rect  x="222.525" y="81.103" width="2.185" height="134.208" fill="#FFFFFF"/>
<rect  x="225.146" y="14" width="2.185" height="263.872" fill="#FFFFFF"/>
<rect  x="227.767" y="74.177" width="2.185" height="163.649" fill="#FFFFFF"/>
<rect  x="230.387" y="115.522" width="2.183" height="54.549" fill="#FFFFFF"/>
<rect  x="233.007" y="91.927" width="2.183" height="101.523" fill="#FFFFFF"/>
<rect  x="235.845" y="117.47" width="2.185" height="40.48" fill="#FFFFFF"/>
<rect  x="217.285" y="123.748" width="2.183" height="25.11" fill="#FFFFFF"/>
<rect  x="238.467" y="105.781" width="2.185" height="60.393" fill="#FFFFFF"/>
<rect  x="241.088" y="99.937" width="2.185" height="76.412" fill="#FFFFFF"/>
<rect  x="243.708" y="53.613" width="2.183" height="168.627" fill="#FFFFFF"/>
<rect  x="246.327" y="50.799" width="2.183" height="177.502" fill="#FFFFFF"/>
<rect  x="248.949" y="107.945" width="2.185" height="61.477" fill="#FFFFFF"/>
<rect  x="251.569" y="117.037" width="2.185" height="41.562" fill="#FFFFFF"/>
<rect  x="254.189" y="127.644" width="2.185" height="14.72" fill="#FFFFFF"/>
<rect  x="256.81" y="114.873" width="2.185" height="41.562" fill="#FFFFFF"/>
<rect  x="259.431" y="118.119" width="2.183" height="40.046" fill="#FFFFFF"/>
<rect  x="267.292" y="115.738" width="2.185" height="44.809" fill="#FFFFFF"/>
<rect  x="264.672" y="118.986" width="2.185" height="40.046" fill="#FFFFFF"/>
<rect  x="262.052" y="123.748" width="2.183" height="23.378" fill="#FFFFFF"/>
<rect  x="269.914" y="96.473" width="2.185" height="86.802" fill="#FFFFFF"/>
<rect  x="272.752" y="115.955" width="2.183" height="41.345" fill="#FFFFFF"/>
<rect  x="275.372" y="55.993" width="2.183" height="162.349" fill="#FFFFFF"/>
<rect  x="277.992" y="92.794" width="2.185" height="82.041" fill="#FFFFFF"/>
<rect  x="280.612" y="73.095" width="2.185" height="118.84" fill="#FFFFFF"/>
<rect  x="283.234" y="82.835" width="2.185" height="118.623" fill="#FFFFFF"/>
<rect  x="285.854" y="115.09" width="2.185" height="44.809" fill="#FFFFFF"/>
<rect  x="288.474" y="113.358" width="2.183" height="44.809" fill="#FFFFFF"/>
<rect  x="291.094" y="131.325" width="2.183" height="14.72" fill="#FFFFFF"/>
<rect  x="293.716" y="105.998" width="2.185" height="80.526" fill="#FFFFFF"/>
<rect  x="296.336" y="90.845" width="2.185" height="115.81" fill="#FFFFFF"/>
<rect  x="298.957" y="108.162" width="2.185" height="34.852" fill="#FFFFFF"/>
<rect  x="301.577" y="117.904" width="2.183" height="37.666" fill="#FFFFFF"/>
<rect  x="304.198" y="125.48" width="2.183" height="23.595" fill="#FFFFFF"/>
<rect  x="307.037" y="63.353" width="2.185" height="147.629" fill="#FFFFFF"/>
<rect  x="309.657" y="36.944" width="2.185" height="193.088" fill="#FFFFFF"/>
<rect  x="312.277" y="70.929" width="2.185" height="119.057" fill="#FFFFFF"/>
<rect  x="314.899" y="129.159" width="2.183" height="17.533" fill="#FFFFFF"/>
<rect  x="317.519" y="130.457" width="2.183" height="12.122" fill="#FFFFFF"/>
<rect  x="320.139" y="122.881" width="2.185" height="28.574" fill="#FFFFFF"/>
<rect  x="322.759" y="126.996" width="2.185" height="17.533" fill="#FFFFFF"/>
<rect  x="347.437" y="112.059" width="2.185" height="46.107" fill="#FFFFFF"/>
<rect  x="350.057" y="94.958" width="2.183" height="85.937" fill="#FFFFFF"/>
<rect  x="352.677" y="64.437" width="2.183" height="139.187" fill="#FFFFFF"/>
<rect  x="355.297" y="110.544" width="2.185" height="102.605" fill="#FFFFFF"/>
<rect  x="357.919" y="113.789" width="2.183" height="57.363" fill="#FFFFFF"/>
<rect  x="360.539" y="87.381" width="2.185" height="95.245" fill="#FFFFFF"/>
<rect  x="363.378" y="84.351" width="2.185" height="118.623" fill="#FFFFFF"/>
<rect  x="344.815" y="122.016" width="2.185" height="25.11" fill="#FFFFFF"/>
<rect  x="365.998" y="93.009" width="2.183" height="88.102" fill="#FFFFFF"/>
<rect  x="368.62" y="114.223" width="2.185" height="47.189" fill="#FFFFFF"/>
<rect  x="371.24" y="36.079" width="2.185" height="190.274" fill="#FFFFFF"/>
<rect  x="373.86" y="43.006" width="2.185" height="173.389" fill="#FFFFFF"/>
<rect  x="376.48" y="84.133" width="2.185" height="110.182" fill="#FFFFFF"/>
<rect  x="379.102" y="79.373" width="2.183" height="117.973" fill="#FFFFFF"/>
<rect  x="381.722" y="125.912" width="2.185" height="40.696" fill="#FFFFFF"/>
<rect  x="384.342" y="73.96" width="2.185" height="103.687" fill="#FFFFFF"/>
<rect  x="386.962" y="85.649" width="2.185" height="129.014" fill="#FFFFFF"/>
<rect  x="394.824" y="124.397" width="2.183" height="25.327" fill="#FFFFFF"/>
<rect  x="392.204" y="115.738" width="2.183" height="52.602" fill="#FFFFFF"/>
<rect  x="389.583" y="77.858" width="2.185" height="154.774" fill="#FFFFFF"/>
<rect  x="397.444" y="115.738" width="2.185" height="31.821" fill="#FFFFFF"/>
<rect  x="400.282" y="104.266" width="2.185" height="68.187" fill="#FFFFFF"/>
<rect  x="402" y="116" width="2.185" height="44.809" fill="#FFFFFF"/>
<rect  x="405.524" y="103.616" width="2.185" height="69.485" fill="#FFFFFF"/>
<rect  x="408.144" y="114.006" width="2.183" height="33.12" fill="#FFFFFF"/>
<rect  x="410.764" y="84.567" width="2.185" height="97.192" fill="#FFFFFF"/>
<rect  x="413.386" y="119.419" width="2.185" height="33.552" fill="#FFFFFF"/>
<rect  x="416.007" y="114.44" width="2.185" height="35.5" fill="#FFFFFF"/>
<rect  x="418.626" y="129.593" width="2.185" height="14.72" fill="#FFFFFF"/>
<rect  x="421.246" y="51.016" width="2.183" height="186.81" fill="#FFFFFF"/>
<rect  x="458" y="0" width="2" height="258" transform="rotate(360 458 0)" fill="#DC1500"/>
<rect  x="423.869" y="89.113" width="2.183" height="106.501" fill="#FFFFFF"/>
<rect  x="426.489" y="114.223" width="2.185" height="26.842" fill="#FFFFFF"/>
<rect  x="429.109" y="123.315" width="2.183" height="33.768" fill="#FFFFFF"/>
<rect  x="431.729" y="114.006" width="2.185" height="33.337" fill="#FFFFFF"/>
<rect  x="434.567" y="131.108" width="2.185" height="11.041" fill="#FFFFFF"/>
<rect  x="437.189" y="132.19" width="2.183" height="7.36" fill="#FFFFFF"/>
<rect  x="439.809" y="132.19" width="2.185" height="8.658" fill="#FFFFFF"/>
<rect  x="442.429" y="127.427" width="2.185" height="17.533" fill="#FFFFFF"/>
<rect  x="445.049" y="128.726" width="2.185" height="12.122" fill="#FFFFFF"/>
<rect  x="447.671" y="134.57" width="2.185" height="5.628" fill="#FFFFFF"/>
<rect  x="450.292" y="131.973" width="2.183" height="8.01" fill="#FFFFFF"/>
</svg>
