<svg width="426" height="78" viewBox="0 0 426 78" fill="none" xmlns="http://www.w3.org/2000/svg" xmlns:xlink="http://www.w3.org/1999/xlink">
<path d="M0,38.292L0,76.582L8.999,76.582L17.998,76.582L17.998,64.582C17.998,53.166 18.238,52.582 22.919,52.582C26.867,52.582 29.14,54.95 34.418,64.558L40.995,76.534L50.494,76.558C55.717,76.572 59.993,76.024 59.993,75.344C59.993,74.662 56.843,68.92 52.994,62.582C49.144,56.244 45.994,50.458 45.994,49.724C45.994,48.99 48.332,46.378 51.19,43.92C57.959,38.096 59.893,24.06 55.181,14.948C50.302,5.508 42.147,2.324 19.7,1.086L0,0L0,38.292ZM69.326,1.916C68.592,2.648 67.992,19.748 67.992,39.916L67.992,76.582L96.102,76.582L124.215,76.582L123.599,68.082L122.985,59.582L104.487,59.006L85.99,58.432L85.99,52.506L85.99,46.582L99.988,46.582L113.986,46.582L113.986,38.582L113.986,30.582L99.988,30.582L85.99,30.582L85.99,24.582L85.99,18.582L103.987,18.582L121.985,18.582L121.985,9.582L121.985,0.582L96.322,0.582C82.206,0.582 70.057,1.182 69.326,1.916ZM146.818,2.412C140.115,5.298 131.984,16.354 131.984,22.582C131.984,31.444 140.119,39.218 155.849,45.392C170.743,51.236 174.127,56.222 166.112,60.512C160.382,63.578 158.777,63.158 151.37,56.656C145.208,51.244 143.984,50.904 137.303,52.75C128.824,55.09 128.71,55.466 133.904,63.984C142.559,78.184 166.614,82.334 180.67,72.056C184.05,69.584 183.968,68.976 179.132,60.514C175.875,54.816 174.019,48.496 174.003,43.056C173.979,34.678 173.795,34.45 163.236,29.78C151.368,24.53 149.456,22.67 151.885,18.736C154.455,14.58 163.7,15.62 169.077,20.674C171.765,23.198 174.261,24.886 174.623,24.424C174.987,23.96 177.246,20.314 179.646,16.322L184.008,9.062L178.492,5.428C172.351,1.38 153.405,-0.424 146.818,2.412ZM249.304,1.916C246.846,4.374 247.936,10.674 252.286,19.162C258.13,30.564 258.136,47.196 252.304,58.392C249.92,62.964 247.97,68.928 247.97,71.644L247.97,76.582L274.966,76.582L301.964,76.582L301.964,67.582L301.964,58.582L283.966,58.582L265.968,58.582L265.968,29.582L265.968,0.582L258.302,0.582C254.086,0.582 250.036,1.182 249.304,1.916ZM291.97,1.972C291.972,2.858 298.272,19.73 305.968,39.468C313.664,59.206 319.96,75.63 319.96,75.968C319.96,76.306 324.326,76.582 329.664,76.582L339.364,76.582L353.66,39.66C361.522,19.352 367.956,2.252 367.956,1.66C367.956,1.066 363.874,0.582 358.884,0.582C350.12,0.582 349.694,0.866 346.174,9.082C344.17,13.758 339.966,25.458 336.832,35.082C333.7,44.708 330.646,52.58 330.048,52.576C329.45,52.574 324.91,41.098 319.96,27.076L310.962,1.582L301.464,0.972C296.238,0.638 291.966,1.088 291.97,1.972ZM371.954,38.582L371.954,76.582L398.952,76.582L425.948,76.582L425.948,67.582L425.948,58.582L407.95,58.582L389.952,58.582L389.952,52.582L389.952,46.582L403.95,46.582L417.95,46.582L417.95,38.582L417.95,30.582L403.95,30.582L389.952,30.582L389.952,24.582L389.952,18.582L407.95,18.582L425.948,18.582L425.948,9.582L425.948,0.582L398.952,0.582L371.954,0.582L371.954,38.582ZM38.355,23.574C41.637,30.776 35.984,36.582 25.687,36.582L17.998,36.582L17.998,27.582L17.998,18.582L27.039,18.582C34.74,18.582 36.42,19.322 38.355,23.574Z" clip-rule="evenodd" fill-rule="evenodd" fill="#FFFFFF"/>
<path d="M201.153,50.428C194.14,42.094 194.37,33.882 201.821,26.428C210.202,18.046 221.593,18.176 228.794,26.736C239.881,39.914 232.06,56.386 214.652,56.518C207.775,56.57 205.433,55.514 201.153,50.428Z" fill="url(#pf_0_5_71)"/>
<defs>
<linearGradient id="pf_0_5_71" x1="196.058" y1="38.374" x2="233.934" y2="38.374" gradientUnits="userSpaceOnUse">
<stop stop-color="#73CBE6"/>
<stop offset="1" stop-color="#52C3E6"/>
</linearGradient>
</defs>
</svg>
