<svg width="48" height="48" viewBox="0 0 48 48" fill="none" xmlns="http://www.w3.org/2000/svg" xmlns:xlink="http://www.w3.org/1999/xlink">
<path d="M34.8,35.138L36.036,36.71C36.481,36.36 36.757,35.837 36.795,35.272C36.833,34.707 36.63,34.152 36.236,33.745L34.8,35.138ZM24,39L24,41C24.011,41 24.022,41 24.034,41L24,39ZM4,24L2.226,23.077C1.934,23.638 1.924,24.304 2.2,24.873L4,24ZM13.2,12.863L14.636,11.47C13.922,10.734 12.768,10.657 11.963,11.291L13.2,12.863ZM19.712,7.506C18.639,7.765 17.978,8.846 18.238,9.919C18.497,10.993 19.577,11.653 20.651,11.394L19.712,7.506ZM24,9L23.995,11L24,11L24,9ZM44,24L45.775,24.92C46.066,24.36 46.075,23.695 45.799,23.128L44,24ZM38.523,28.717C37.825,29.573 37.952,30.833 38.808,31.531C39.664,32.229 40.924,32.101 41.622,31.246L38.523,28.717ZM29.338,29.316C30.079,28.496 30.015,27.232 29.195,26.491C28.376,25.751 27.111,25.815 26.37,26.634L29.338,29.316ZM21.531,21.467C22.328,20.702 22.353,19.436 21.587,18.639C20.822,17.843 19.556,17.818 18.76,18.583L21.531,21.467ZM33.564,33.565C30.795,35.742 27.431,36.942 23.966,37L24.034,41C28.383,40.926 32.589,39.42 36.036,36.71L33.564,33.565ZM24,37C18.46,37 13.957,33.73 10.707,30.155C9.103,28.39 7.866,26.617 7.03,25.282C6.614,24.617 6.3,24.066 6.093,23.687C5.99,23.497 5.913,23.351 5.864,23.255C5.84,23.208 5.822,23.172 5.811,23.151C5.806,23.14 5.802,23.133 5.8,23.129C5.799,23.127 5.799,23.126 5.798,23.125C5.798,23.125 5.798,23.125 5.799,23.126C5.799,23.126 5.799,23.126 5.799,23.127C5.799,23.127 5.8,23.128 4,24C2.2,24.873 2.201,24.873 2.201,24.874C2.201,24.874 2.201,24.875 2.202,24.876C2.202,24.877 2.203,24.879 2.204,24.88C2.206,24.884 2.208,24.888 2.21,24.893C2.216,24.904 2.222,24.918 2.231,24.935C2.249,24.971 2.273,25.02 2.305,25.082C2.369,25.206 2.461,25.382 2.581,25.602C2.822,26.043 3.176,26.664 3.64,27.405C4.566,28.883 5.943,30.86 7.747,32.845C11.316,36.77 16.813,41 24,41L24,37ZM5.774,24.923C7.906,20.825 10.861,17.25 14.437,14.434L11.963,11.291C7.935,14.463 4.617,18.482 2.226,23.077L5.774,24.923ZM11.764,14.255L33.364,36.53L36.236,33.745L14.636,11.47L11.764,14.255ZM20.651,11.394C21.748,11.13 22.87,10.997 23.995,11L24.005,7C22.559,6.997 21.119,7.166 19.712,7.506L20.651,11.394ZM24,11C29.54,11 34.043,14.271 37.293,17.845C38.897,19.61 40.134,21.383 40.97,22.718C41.386,23.383 41.7,23.934 41.907,24.313C42.01,24.503 42.086,24.649 42.136,24.745C42.16,24.793 42.178,24.828 42.189,24.849C42.194,24.86 42.198,24.868 42.2,24.872C42.201,24.874 42.201,24.875 42.201,24.875C42.201,24.875 42.201,24.875 42.201,24.874C42.201,24.874 42.201,24.874 42.201,24.874C42.2,24.873 42.2,24.873 44,24C45.799,23.128 45.799,23.127 45.799,23.126C45.799,23.126 45.798,23.125 45.798,23.124C45.797,23.123 45.797,23.122 45.796,23.12C45.794,23.117 45.792,23.112 45.789,23.107C45.784,23.096 45.777,23.082 45.768,23.065C45.751,23.03 45.726,22.981 45.694,22.919C45.631,22.795 45.539,22.619 45.418,22.398C45.178,21.957 44.824,21.336 44.36,20.595C43.434,19.117 42.057,17.14 40.252,15.155C36.684,11.23 31.187,7 24,7L24,11ZM42.224,23.08C41.183,25.088 39.943,26.977 38.523,28.717L41.622,31.246C43.217,29.291 44.609,27.171 45.775,24.92L42.224,23.08ZM26.37,26.634C26.051,26.988 25.668,27.268 25.249,27.461L26.919,31.096C27.837,30.674 28.659,30.067 29.338,29.316L26.37,26.634ZM25.249,27.461C24.829,27.654 24.379,27.757 23.924,27.765L23.996,31.764C25.006,31.746 26,31.518 26.919,31.096L25.249,27.461ZM23.924,27.765C23.469,27.773 23.015,27.687 22.59,27.51L21.052,31.202C21.985,31.591 22.987,31.782 23.996,31.764L23.924,27.765ZM22.59,27.51C22.164,27.333 21.774,27.067 21.443,26.726L18.571,29.51C19.276,30.237 20.119,30.814 21.052,31.202L22.59,27.51ZM21.443,26.726C21.112,26.384 20.847,25.974 20.669,25.518L16.944,26.976C17.314,27.921 17.866,28.783 18.571,29.51L21.443,26.726ZM20.669,25.518C20.49,25.061 20.401,24.571 20.41,24.075L16.41,24.007C16.393,25.022 16.574,26.032 16.944,26.976L20.669,25.518ZM20.41,24.075C20.418,23.58 20.523,23.093 20.717,22.644L17.046,21.058C16.643,21.989 16.428,22.992 16.41,24.007L20.41,24.075ZM20.717,22.644C20.911,22.196 21.189,21.796 21.531,21.467L18.76,18.583C18.03,19.284 17.448,20.127 17.046,21.058L20.717,22.644Z" fill="url(#ps_0_i_5_183;3004_1427;3006_2368)"/>
<path d="M5.414,3.586C4.633,2.805 3.367,2.805 2.586,3.586C1.805,4.367 1.805,5.633 2.586,6.414L5.414,3.586ZM42.586,46.414C43.367,47.195 44.633,47.195 45.414,46.414C46.195,45.633 46.195,44.367 45.414,43.586L42.586,46.414ZM2.586,6.414L42.586,46.414L45.414,43.586L5.414,3.586L2.586,6.414Z" fill="url(#ps_0_i_5_183;3004_1427;3006_2369)"/>
<defs>
<linearGradient id="ps_0_i_5_183;3004_1427;3006_2368" x1="4" y1="24" x2="44" y2="24" gradientUnits="userSpaceOnUse">
<stop stop-color="#73CBE6"/>
<stop offset="1" stop-color="#52C3E6"/>
</linearGradient>
<linearGradient id="ps_0_i_5_183;3004_1427;3006_2369" x1="4" y1="25" x2="44" y2="25" gradientUnits="userSpaceOnUse">
<stop stop-color="#73CBE6"/>
<stop offset="1" stop-color="#52C3E6"/>
</linearGradient>
</defs>
</svg>
