<svg width="96" height="96" viewBox="0 0 96 96" fill="none" xmlns="http://www.w3.org/2000/svg" xmlns:xlink="http://www.w3.org/1999/xlink">
<path d="M40,48C40,49.061 39.579,50.078 38.828,50.829C38.078,51.579 37.061,52 36,52L16.276,52C17.245,59.731 21.003,66.842 26.844,71.997C32.686,77.153 40.209,79.998 48,79.998C55.791,79.998 63.314,77.153 69.156,71.997C74.997,66.842 78.755,59.731 79.724,52L60,52C58.939,52 57.922,51.579 57.172,50.829C56.421,50.078 56,49.061 56,48C56,46.939 56.421,45.922 57.172,45.172C57.922,44.422 58.939,44 60,44L80,44L80,36L60,36C58.939,36 57.922,35.579 57.172,34.829C56.421,34.078 56,33.061 56,32C56,30.939 56.421,29.922 57.172,29.172C57.922,28.422 58.939,28 60,28L79.724,28C78.755,20.269 74.997,13.158 69.156,8.003C63.314,2.847 55.791,0.003 48,0.003C40.209,0.003 32.686,2.847 26.844,8.003C21.003,13.158 17.245,20.269 16.276,28L36,28C37.061,28 38.078,28.422 38.828,29.172C39.579,29.922 40,30.939 40,32C40,33.061 39.579,34.078 38.828,34.829C38.078,35.579 37.061,36 36,36L16,36L16,44L36,44C37.061,44 38.078,44.422 38.828,45.172C39.579,45.922 40,46.939 40,48Z" fill="#FFFFFF"/>
<path d="M92,48C90.939,48 89.922,48.421 89.172,49.172C88.421,49.922 88,50.939 88,52C87.989,61.545 84.193,70.695 77.444,77.444C70.695,84.193 61.545,87.989 52,88L44,88C34.456,87.988 25.306,84.192 18.557,77.443C11.808,70.694 8.012,61.544 8,52C8,50.939 7.579,49.922 6.828,49.172C6.078,48.421 5.061,48 4,48C2.939,48 1.922,48.421 1.172,49.172C0.421,49.922 0,50.939 0,52C0.014,63.665 4.654,74.849 12.903,83.097C21.151,91.346 32.335,95.986 44,96L52,96C63.665,95.986 74.849,91.346 83.097,83.097C91.346,74.849 95.986,63.665 96,52C96,50.939 95.579,49.922 94.828,49.172C94.078,48.421 93.061,48 92,48Z" fill="#FFFFFF"/>
</svg>
