<svg width="72" height="68" viewBox="0 0 72 68" fill="none" xmlns="http://www.w3.org/2000/svg" xmlns:xlink="http://www.w3.org/1999/xlink">
<path d="M65,42.5C65,41.395 64.105,40.5 63,40.5C61.895,40.5 61,41.395 61,42.5L65,42.5ZM9,53.833L7,53.833L9,53.833ZM11,42.5C11,41.395 10.105,40.5 9,40.5C7.895,40.5 7,41.395 7,42.5L11,42.5ZM61,42.5L61,53.833L65,53.833L65,42.5L61,42.5ZM61,53.833C61,54.768 60.608,55.689 59.869,56.386L62.616,59.294C64.128,57.866 65,55.905 65,53.833L61,53.833ZM59.869,56.386C59.127,57.088 58.097,57.5 57,57.5L57,61.5C59.086,61.5 61.108,60.718 62.616,59.294L59.869,56.386ZM57,57.5L15,57.5L15,61.5L57,61.5L57,57.5ZM15,57.5C13.903,57.5 12.873,57.088 12.131,56.386L9.384,59.294C10.892,60.718 12.914,61.5 15,61.5L15,57.5ZM12.131,56.386C11.392,55.689 11,54.768 11,53.833L7,53.833C7,55.905 7.872,57.866 9.384,59.294L12.131,56.386ZM11,53.833L11,42.5L7,42.5L7,53.833L11,53.833Z" fill="#F8F8F8"/>
<path d="M49.627,24.121C50.43,24.879 51.696,24.843 52.454,24.04C53.212,23.237 53.176,21.971 52.373,21.213L49.627,24.121ZM36,8.5L37.373,7.046C36.602,6.318 35.398,6.318 34.627,7.046L36,8.5ZM19.627,21.213C18.824,21.971 18.788,23.237 19.546,24.04C20.304,24.843 21.57,24.879 22.373,24.121L19.627,21.213ZM52.373,21.213L37.373,7.046L34.627,9.954L49.627,24.121L52.373,21.213ZM34.627,7.046L19.627,21.213L22.373,24.121L37.373,9.954L34.627,7.046Z" fill="#F8F8F8"/>
<line x1="34" y1="8.5" x2="34" y2="42.5" stroke="#F8F8F8" stroke-width="2" stroke-miterlimit="3.999327" stroke-linecap="round" stroke-linejoin="round"/>
</svg>
