<svg width="44" height="32" viewBox="0 0 44 32" fill="none" xmlns="http://www.w3.org/2000/svg" xmlns:xlink="http://www.w3.org/1999/xlink">
<path d="M44,6C44,4.408 43.368,2.882 42.242,1.758C41.118,0.632 39.592,0 38,0C30.336,0 13.664,0 6,0C4.408,0 2.882,0.632 1.758,1.758C0.632,2.882 0,4.408 0,6L0,26C0,27.592 0.632,29.118 1.758,30.242C2.882,31.368 4.408,32 6,32L38,32C39.592,32 41.118,31.368 42.242,30.242C43.368,29.118 44,27.592 44,26L44,6ZM10,24L14,24C15.104,24 16,23.104 16,22C16,20.896 15.104,20 14,20L10,20C8.896,20 8,20.896 8,22C8,23.104 8.896,24 10,24ZM22,24L34,24C35.104,24 36,23.104 36,22C36,20.896 35.104,20 34,20L22,20C20.896,20 20,20.896 20,22C20,23.104 20.896,24 22,24ZM32,16L34,16C35.104,16 36,15.104 36,14C36,12.896 35.104,12 34,12L32,12C30.896,12 30,12.896 30,14C30,15.104 30.896,16 32,16ZM10,16L24,16C25.104,16 26,15.104 26,14C26,12.896 25.104,12 24,12L10,12C8.896,12 8,12.896 8,14C8,15.104 8.896,16 10,16Z" clip-rule="evenodd" fill-rule="evenodd" fill="url(#pf_0_i_7_603;3011_5560;3012_6209)"/>
<defs>
<linearGradient id="pf_0_i_7_603;3011_5560;3012_6209" x1="0" y1="16" x2="44" y2="16" gradientUnits="userSpaceOnUse">
<stop stop-color="#73CBE6"/>
<stop offset="1" stop-color="#52C3E6"/>
</linearGradient>
</defs>
</svg>
