<svg width="24" height="32" viewBox="0 0 24 32" fill="none" xmlns="http://www.w3.org/2000/svg" xmlns:xlink="http://www.w3.org/1999/xlink">
<path d="M22.667,13.867L23.114,14.761C23.44,14.598 23.652,14.27 23.666,13.905C23.68,13.54 23.494,13.197 23.181,13.009L22.667,13.867ZM1.333,1.067L1.848,0.209C1.539,0.024 1.154,0.019 0.841,0.196C0.527,0.374 0.333,0.706 0.333,1.067L1.333,1.067ZM23.181,13.009L1.848,0.209L0.819,1.924L22.152,14.724L23.181,13.009ZM0.333,1.067L0.333,24.533L2.333,24.533L2.333,1.067L0.333,1.067ZM1.78,25.428L23.114,14.761L22.219,12.972L0.886,23.639L1.78,25.428ZM2.333,32L2.333,24.533L0.333,24.533L0.333,32L2.333,32Z" fill="#2FD1C5"/>
</svg>
