<svg width="90" height="100" viewBox="0 0 90 100" fill="none" xmlns="http://www.w3.org/2000/svg" xmlns:xlink="http://www.w3.org/1999/xlink">
<path d="M0,24.583L0,14.75L10,14.75L10,9.833C10,4.376 14.5,0 20,0L50,0L50,34.417L62.5,27.042L75,34.417L75,0L80,0C85.25,0 90,4.671 90,9.833L90,88.5C90,93.662 85.25,98.333 80,98.333L20,98.333C14.75,98.333 10,93.662 10,88.5L10,83.583L0,83.583L0,73.75L10,73.75L10,54.083L0,54.083L0,44.25L10,44.25L10,24.583L0,24.583ZM20,44.25L10,44.25L10,54.083L20,54.083L20,44.25ZM20,24.583L20,14.75L10,14.75L10,24.583L20,24.583ZM20,83.583L20,73.75L10,73.75L10,83.583L20,83.583Z" fill="#F8F8F8"/>
</svg>
