<svg width="32" height="32" viewBox="0 0 32 32" fill="none" xmlns="http://www.w3.org/2000/svg" xmlns:xlink="http://www.w3.org/1999/xlink">
<path d="M30.933,1.067L31.847,1.473C31.985,1.163 31.956,0.806 31.772,0.522C31.587,0.238 31.272,0.067 30.933,0.067L30.933,1.067ZM1.067,1.067L1.067,0.067C0.514,0.067 0.067,0.514 0.067,1.067L1.067,1.067ZM30.933,20.267L30.933,21.267C31.272,21.267 31.587,21.095 31.772,20.812C31.956,20.528 31.985,20.17 31.847,19.861L30.933,20.267ZM26.667,10.667L25.753,10.261C25.638,10.519 25.638,10.814 25.753,11.073L26.667,10.667ZM30.933,0.067L1.067,0.067L1.067,2.067L30.933,2.067L30.933,0.067ZM0.067,1.067L0.067,20.267L2.067,20.267L2.067,1.067L0.067,1.067ZM1.067,21.267L30.933,21.267L30.933,19.267L1.067,19.267L1.067,21.267ZM31.847,19.861L27.58,10.261L25.753,11.073L30.019,20.673L31.847,19.861ZM27.58,11.073L31.847,1.473L30.019,0.661L25.753,10.261L27.58,11.073ZM2.067,32L2.067,20.267L0.067,20.267L0.067,32L2.067,32Z" fill="#2FD1C5"/>
</svg>
