<svg width="32" height="32" viewBox="0 0 32 32" fill="none" xmlns="http://www.w3.org/2000/svg" xmlns:xlink="http://www.w3.org/1999/xlink">
<path d="M6.333,28.8L6.333,16L4.333,16L4.333,28.8L6.333,28.8ZM25.667,16L25.667,28.8L27.667,28.8L27.667,16L25.667,16ZM24.533,29.933L7.467,29.933L7.467,31.933L24.533,31.933L24.533,29.933ZM25.667,28.8C25.667,29.426 25.159,29.933 24.533,29.933L24.533,31.933C26.264,31.933 27.667,30.53 27.667,28.8L25.667,28.8ZM16,6.333C21.339,6.333 25.667,10.661 25.667,16L27.667,16C27.667,9.557 22.443,4.333 16,4.333L16,6.333ZM6.333,16C6.333,10.661 10.661,6.333 16,6.333L16,4.333C9.557,4.333 4.333,9.557 4.333,16L6.333,16ZM4.333,28.8C4.333,30.53 5.736,31.933 7.467,31.933L7.467,29.933C6.841,29.933 6.333,29.426 6.333,28.8L4.333,28.8ZM15,0L15,5.333L17,5.333L17,0L15,0ZM11.733,19.267C11.107,19.267 10.6,18.759 10.6,18.133L8.6,18.133C8.6,19.864 10.003,21.267 11.733,21.267L11.733,19.267ZM12.867,18.133C12.867,18.759 12.359,19.267 11.733,19.267L11.733,21.267C13.464,21.267 14.867,19.864 14.867,18.133L12.867,18.133ZM11.733,17C12.359,17 12.867,17.507 12.867,18.133L14.867,18.133C14.867,16.403 13.464,15 11.733,15L11.733,17ZM11.733,15C10.003,15 8.6,16.403 8.6,18.133L10.6,18.133C10.6,17.507 11.107,17 11.733,17L11.733,15ZM20.267,19.267C19.641,19.267 19.133,18.759 19.133,18.133L17.133,18.133C17.133,19.864 18.536,21.267 20.267,21.267L20.267,19.267ZM21.4,18.133C21.4,18.759 20.893,19.267 20.267,19.267L20.267,21.267C21.997,21.267 23.4,19.864 23.4,18.133L21.4,18.133ZM20.267,17C20.893,17 21.4,17.507 21.4,18.133L23.4,18.133C23.4,16.403 21.997,15 20.267,15L20.267,17ZM20.267,15C18.536,15 17.133,16.403 17.133,18.133L19.133,18.133C19.133,17.507 19.641,17 20.267,17L20.267,15ZM8.533,25.533L23.467,25.533L23.467,23.533L8.533,23.533L8.533,25.533ZM0.067,17.067L0.067,25.6L2.067,25.6L2.067,17.067L0.067,17.067ZM29.933,17.067L29.933,25.6L31.933,25.6L31.933,17.067L29.933,17.067Z" fill="#FF7A7B"/>
</svg>
