<svg width="32" height="32" viewBox="0 0 32 32" fill="none" xmlns="http://www.w3.org/2000/svg" xmlns:xlink="http://www.w3.org/1999/xlink">
<path d="M1.067,7.462L0.673,6.543C0.305,6.701 0.067,7.062 0.067,7.462L1.067,7.462ZM16,1.067L16.394,0.147C16.142,0.04 15.858,0.04 15.606,0.147L16,1.067ZM30.933,7.462L31.933,7.462C31.933,7.062 31.695,6.701 31.327,6.543L30.933,7.462ZM1.067,24.533L0.067,24.533C0.067,24.933 0.305,25.295 0.673,25.452L1.067,24.533ZM16,30.933L15.606,31.852C15.858,31.96 16.142,31.96 16.394,31.852L16,30.933ZM30.933,24.533L31.327,25.452C31.695,25.295 31.933,24.933 31.933,24.533L30.933,24.533ZM16,13.867L15.606,12.948C15.238,13.105 15,13.467 15,13.867L16,13.867ZM1.46,8.382L16.394,1.986L15.606,0.147L0.673,6.543L1.46,8.382ZM15.606,1.986L30.54,8.382L31.327,6.543L16.394,0.147L15.606,1.986ZM30.54,6.543L15.606,12.939L16.394,14.778L31.327,8.382L30.54,6.543ZM16.394,12.939L1.46,6.543L0.673,8.382L15.606,14.778L16.394,12.939ZM0.673,25.452L15.606,31.852L16.394,30.014L1.461,23.614L0.673,25.452ZM17,30.933L17,13.858L15,13.858L15,30.933L17,30.933ZM0.067,7.462L0.067,7.467L2.067,7.467L2.067,7.462L0.067,7.462ZM0.067,7.467L0.067,24.533L2.067,24.533L2.067,7.467L0.067,7.467ZM0.673,8.386L15.606,14.778L16.393,12.939L1.46,6.547L0.673,8.386ZM29.933,7.462L29.933,24.533L31.933,24.533L31.933,7.462L29.933,7.462ZM30.539,23.614L15.606,30.014L16.394,31.852L31.327,25.452L30.539,23.614ZM17,30.933L17,13.867L15,13.867L15,30.933L17,30.933ZM16.394,14.786L31.327,8.382L30.539,6.543L15.606,12.948L16.394,14.786Z" fill="#26BFBF"/>
</svg>
