<svg width="32" height="30" viewBox="0 0 32 30" fill="none" xmlns="http://www.w3.org/2000/svg" xmlns:xlink="http://www.w3.org/1999/xlink">
<path d="M1.067,3.333L0.067,3.333L1.067,3.333ZM3.2,1.2L3.2,2.2L3.2,1.2ZM3.2,22.533L3.2,21.533L3.2,21.533L3.2,22.533ZM1.067,20.4L2.067,20.4L1.067,20.4ZM30.933,20.4L31.933,20.4L31.933,20.4L30.933,20.4ZM28.8,22.533L28.8,23.533L28.8,23.533L28.8,22.533ZM30.933,3.333L29.933,3.333L29.933,3.333L30.933,3.333ZM29.933,3.333L29.933,20.4L31.933,20.4L31.933,3.333L29.933,3.333ZM28.8,21.533L3.2,21.533L3.2,23.533L28.8,23.533L28.8,21.533ZM2.067,20.4L2.067,3.333L0.067,3.333L0.067,20.4L2.067,20.4ZM3.2,2.2L28.8,2.2L28.8,0.2L3.2,0.2L3.2,2.2ZM2.067,3.333C2.067,2.707 2.574,2.2 3.2,2.2L3.2,0.2C1.469,0.2 0.067,1.603 0.067,3.333L2.067,3.333ZM3.2,21.533C2.574,21.533 2.067,21.026 2.067,20.4L0.067,20.4C0.067,22.13 1.469,23.533 3.2,23.533L3.2,21.533ZM29.933,20.4C29.933,21.026 29.426,21.533 28.8,21.533L28.8,23.533C30.53,23.533 31.933,22.13 31.933,20.4L29.933,20.4ZM31.933,3.333C31.933,1.603 30.53,0.2 28.8,0.2L28.8,2.2C29.426,2.2 29.933,2.707 29.933,3.333L31.933,3.333ZM8.533,29.933L23.467,29.933L23.467,27.933L8.533,27.933L8.533,29.933Z" fill="#2FD1C5"/>
</svg>
