<svg width="80" height="58" viewBox="0 0 80 58" fill="none" xmlns="http://www.w3.org/2000/svg" xmlns:xlink="http://www.w3.org/1999/xlink">
<path d="M12.639,56.853C9.292,56.851 6.083,55.521 3.716,53.155C1.349,50.789 0.018,47.58 0.016,44.233L0.016,11.767C0.015,9.436 0.66,7.15 1.88,5.164C3.1,3.178 4.847,1.569 6.926,0.515C9.005,-0.539 11.336,-0.995 13.659,-0.804C15.982,-0.613 18.206,0.218 20.086,1.597L32.682,10.843C32.847,8.597 33.61,6.437 34.892,4.585C36.175,2.734 37.929,1.26 39.974,0.316C42.019,-0.628 44.279,-1.007 46.519,-0.781C48.76,-0.556 50.9,0.265 52.716,1.597L74.852,17.83C76.448,19.002 77.745,20.533 78.64,22.299C79.534,24.065 80,26.017 80,27.997C80,29.976 79.534,31.928 78.64,33.694C77.745,35.461 76.448,36.991 74.852,38.163L52.716,54.397C50.9,55.728 48.761,56.549 46.521,56.775C44.281,57 42.021,56.622 39.977,55.679C37.932,54.736 36.177,53.263 34.895,51.412C33.612,49.562 32.848,47.402 32.682,45.157L20.086,54.403C17.928,55.992 15.319,56.85 12.639,56.853Z" transform="rotate(360 40.008 28.003)" fill="url(#pf_0_i_7_484;3013_6642)"/>
<defs>
<linearGradient id="pf_0_i_7_484;3013_6642" x1="80" y1="28.003" x2="0.016" y2="28.003" gradientUnits="userSpaceOnUse">
<stop stop-color="#73CBE6"/>
<stop offset="1" stop-color="#52C3E6"/>
</linearGradient>
</defs>
</svg>
