<svg width="32" height="32" viewBox="0 0 32 32" fill="none" xmlns="http://www.w3.org/2000/svg" xmlns:xlink="http://www.w3.org/1999/xlink">
<path d="M22.667,4L21.253,2.586L22.667,4ZM25.333,2.896L25.333,0.896L25.333,2.896ZM29.105,6.667L31.105,6.667L29.105,6.667ZM28,9.333L29.414,10.748L29.414,10.748L28,9.333ZM10,27.334L10.526,29.263C10.862,29.171 11.168,28.994 11.414,28.748L10,27.334ZM2.667,29.334L0.737,28.807C0.548,29.5 0.745,30.24 1.253,30.748C1.76,31.255 2.501,31.452 3.193,31.263L2.667,29.334ZM4.667,22L3.253,20.586C3.006,20.832 2.829,21.138 2.737,21.474L4.667,22ZM24.081,5.414C24.245,5.25 24.441,5.119 24.656,5.03L23.125,1.335C22.425,1.625 21.788,2.05 21.253,2.586L24.081,5.414ZM24.656,5.03C24.871,4.941 25.101,4.896 25.333,4.896L25.333,0.896C24.576,0.896 23.825,1.045 23.125,1.335L24.656,5.03ZM25.333,4.896C25.566,4.896 25.796,4.941 26.011,5.03L27.542,1.335C26.842,1.045 26.091,0.896 25.333,0.896L25.333,4.896ZM26.011,5.03C26.226,5.119 26.421,5.25 26.586,5.414L29.414,2.586C28.878,2.05 28.242,1.625 27.542,1.335L26.011,5.03ZM26.586,5.414C26.75,5.579 26.881,5.774 26.97,5.989L30.665,4.458C30.375,3.758 29.95,3.122 29.414,2.586L26.586,5.414ZM26.97,5.989C27.059,6.204 27.105,6.434 27.105,6.667L31.105,6.667C31.105,5.909 30.955,5.158 30.665,4.458L26.97,5.989ZM27.105,6.667C27.105,6.899 27.059,7.13 26.97,7.345L30.665,8.875C30.955,8.175 31.105,7.425 31.105,6.667L27.105,6.667ZM26.97,7.345C26.881,7.559 26.75,7.755 26.586,7.919L29.414,10.748C29.95,10.212 30.375,9.576 30.665,8.875L26.97,7.345ZM26.586,7.919L8.586,25.919L11.414,28.748L29.414,10.748L26.586,7.919ZM9.474,25.404L2.141,27.404L3.193,31.263L10.526,29.263L9.474,25.404ZM4.596,29.86L6.596,22.526L2.737,21.474L0.737,28.807L4.596,29.86ZM6.081,23.414L24.081,5.414L21.253,2.586L3.253,20.586L6.081,23.414Z" fill="url(#ps_0_i_7_740;3006_2120)"/>
<defs>
<linearGradient id="ps_0_i_7_740;3006_2120" x1="2.667" y1="16.114" x2="29.105" y2="16.114" gradientUnits="userSpaceOnUse">
<stop stop-color="#73CBE6"/>
<stop offset="1" stop-color="#52C3E6"/>
</linearGradient>
</defs>
</svg>
