<svg width="32" height="32" viewBox="0 0 32 32" fill="none" xmlns="http://www.w3.org/2000/svg" xmlns:xlink="http://www.w3.org/1999/xlink">
<path d="M31.415,28.594L25.221,22.397C29.856,16.204 28.592,7.427 22.399,2.793C16.206,-1.841 7.428,-0.578 2.794,5.615C-1.84,11.808 -0.577,20.586 5.617,25.22C10.591,28.943 17.424,28.943 22.399,25.22L28.595,31.416C29.374,32.195 30.636,32.195 31.415,31.416C32.193,30.637 32.193,29.375 31.415,28.596L31.415,28.594ZM14.059,24.024C8.555,24.024 4.093,19.562 4.093,14.058C4.093,8.554 8.555,4.092 14.059,4.092C19.563,4.092 24.025,8.554 24.025,14.058C24.019,19.56 19.561,24.018 14.059,24.024Z" fill="url(#pf_0_i_5_378;1932_3771)" stroke="url(#ps_0_i_5_378;1932_3771)" stroke-width="0.997" stroke-miterlimit="3.999327"/>
<defs>
<linearGradient id="pf_0_i_5_378;1932_3771" x1="0.001" y1="16" x2="31.999" y2="16" gradientUnits="userSpaceOnUse">
<stop stop-color="#73CBE6"/>
<stop offset="1" stop-color="#52C3E6"/>
</linearGradient>
</defs>
</svg>
